<svg id="Layer_1" data-name="Layer 1" xmlns="http://www.w3.org/2000/svg" xmlns:xlink="http://www.w3.org/1999/xlink" width="400" height="72" viewBox="0 0 400 72"><defs><style>.cls-1{fill:none;}.cls-2{fill:#fff;}.cls-3{clip-path:url(#clip-path);}.cls-4{fill:#0599a8;}.cls-5{fill:#54575a;}</style><clipPath id="clip-path"><rect class="cls-1" x="5" y="6" width="209.8731" height="60"/></clipPath></defs><rect class="cls-2" width="400" height="72"/><g class="cls-3"><g class="cls-3"><path class="cls-4" d="M56.7066,28.8662a4.3437,4.3437,0,0,0,2.4148-.7139,4.4009,4.4009,0,0,0,.4834-2.6347V11.2345a3.393,3.393,0,0,0-.539-2.3025,3.988,3.988,0,0,0-2.3592-.6607V7.66h9.1462v.6111a3.9886,3.9886,0,0,0-2.3545.6607,3.3678,3.3678,0,0,0-.5449,2.3025V17.66H72.97V11.2345a3.4357,3.4357,0,0,0-.5307-2.3025,3.9733,3.9733,0,0,0-2.3675-.6607V7.66h9.1462v.6111a3.9817,3.9817,0,0,0-2.3592.6607,3.3856,3.3856,0,0,0-.54,2.3025V25.903a3.3153,3.3153,0,0,0,.54,2.2989,4.2849,4.2849,0,0,0,2.3592.6643v.6123H70.0713v-.6123a4.212,4.212,0,0,0,2.4231-.7057,4.514,4.514,0,0,0,.4751-2.6429V19.1089H62.9534V25.903a3.3287,3.3287,0,0,0,.5449,2.306,4.176,4.176,0,0,0,2.3545.6572v.6123H56.7066Z"/><path class="cls-4" d="M90.0349,15.9446a5.7484,5.7484,0,0,1,1.7068,4.4526H81.5163q.1614,3.7267,1.6915,5.43a4.7175,4.7175,0,0,0,3.6227,1.7021,4.5648,4.5648,0,0,0,2.85-.883,8.8779,8.8779,0,0,0,2.1418-2.507l.5638.1939a9.1726,9.1726,0,0,1-2.4716,3.7894,6.1585,6.1585,0,0,1-4.4359,1.7422,5.4244,5.4244,0,0,1-4.6772-2.2871A8.7524,8.7524,0,0,1,79.15,22.3132a8.55,8.55,0,0,1,1.9172-5.5873,6.13,6.13,0,0,1,4.99-2.3521,5.6918,5.6918,0,0,1,3.9774,1.5708m-7.7124,1.2316a6.3807,6.3807,0,0,0-.7412,2.19h6.7941a6.6642,6.6642,0,0,0-.6111-2.3995A2.78,2.78,0,0,0,85.1238,15.55a3.0765,3.0765,0,0,0-2.8013,1.6264"/><path class="cls-4" d="M96.2166,22.3767a35.1813,35.1813,0,0,1,5.9087-2.624V18.384a5.6632,5.6632,0,0,0-.32-2.2871,2.2991,2.2991,0,0,0-2.2718-1.0792,3.1268,3.1268,0,0,0-1.5614.42,1.329,1.329,0,0,0-.7411,1.1915,4.3174,4.3174,0,0,0,.0816.6524,4.6934,4.6934,0,0,1,.08.5875,1.3411,1.3411,0,0,1-.5969,1.2564,1.4932,1.4932,0,0,1-.8037.208,1.3494,1.3494,0,0,1-1.1123-.4739,1.6337,1.6337,0,0,1-.3865-1.0556,3.3514,3.3514,0,0,1,1.3936-2.358,5.9826,5.9826,0,0,1,4.0814-1.2328q3.1257,0,4.235,2.0294a7.0068,7.0068,0,0,1,.5957,3.2363v6.4572a4.3068,4.3068,0,0,0,.1289,1.2884.8391.8391,0,0,0,.8687.6276,1.46,1.46,0,0,0,.6123-.1123,6.38,6.38,0,0,0,.8368-.5484v.838a5.2243,5.2243,0,0,1-1.11,1.0307,3.241,3.241,0,0,1-1.8357.6111,1.7908,1.7908,0,0,1-1.5862-.708,3.1783,3.1783,0,0,1-.54-1.69,15.1855,15.1855,0,0,1-2.0922,1.578,5.4978,5.4978,0,0,1-2.7859.8687,3.3452,3.3452,0,0,1-2.3994-.9739,3.2813,3.2813,0,0,1-1.0153-2.4716,4.587,4.587,0,0,1,2.3356-3.897m5.9087-1.819a14.8173,14.8173,0,0,0-3.059,1.3522q-2.319,1.4343-2.3179,3.2528a2.4714,2.4714,0,0,0,.9657,2.1571,2.3421,2.3421,0,0,0,1.4007.4515,3.8435,3.8435,0,0,0,2.0365-.5957,1.7465,1.7465,0,0,0,.974-1.5141Z"/><path class="cls-4" d="M107.3934,29.0272a3.8115,3.8115,0,0,0,2.0295-.604,2.3322,2.3322,0,0,0,.5307-1.7955V10.8967a4.139,4.139,0,0,0-.1761-1.4656,1.3,1.3,0,0,0-1.305-.6761,2.6564,2.6564,0,0,0-.49.0484q-.266.0479-.669.1442V8.4169q2.1736-.58,5.2327-1.546a.1247.1247,0,0,1,.1383.0957,2.3131,2.3131,0,0,1,.0236.42V26.6916a2.42,2.42,0,0,0,.4823,1.812,3.757,3.757,0,0,0,1.9975.5236v.45h-7.794Z"/><path class="cls-4" d="M123.0881,14.6321v1.1584h-3.2847l-.0331,9.2762a6.2418,6.2418,0,0,0,.2092,1.851,1.4888,1.4888,0,0,0,1.5141,1.1111,1.83,1.83,0,0,0,1.0071-.2731,5.3085,5.3085,0,0,0,.9739-.87l.4185.3546-.3534.4822a5.1619,5.1619,0,0,1-1.7718,1.5945,4.0322,4.0322,0,0,1-1.8049.4669,2.5382,2.5382,0,0,1-2.5756-1.69,7.0081,7.0081,0,0,1-.37-2.5448V15.7905h-1.7553a.4686.4686,0,0,1-.1217-.0957.2069.2069,0,0,1-.039-.1289.3823.3823,0,0,1,.0721-.2494,5,5,0,0,1,.4586-.4113,13.7261,13.7261,0,0,0,1.6028-1.4893q.4911-.5709,2.3107-3.0188a.5448.5448,0,0,1,.2494.0319c.026.0213.04.1028.04.2411v3.962Z"/><path class="cls-4" d="M124.1582,29.0272a2.82,2.82,0,0,0,1.73-.6525A3.9037,3.9037,0,0,0,126.3,26.129V10.671a2.8585,2.8585,0,0,0-.2352-1.3286q-.2322-.4272-1.1347-.4267a2.5322,2.5322,0,0,0-.3451.0237c-.1123.0165-.24.0354-.3783.0567V8.4169c.4705-.1395,1.0544-.3085,1.747-.5071s1.1725-.3415,1.4409-.4278L128.9393,7l.0319.1123v9.8873a10.4987,10.4987,0,0,1,1.8049-1.7068,5.3232,5.3232,0,0,1,3.06-.9668,3.53,3.53,0,0,1,3.5566,2.19,7.5684,7.5684,0,0,1,.5153,3.0436v6.57a4.09,4.09,0,0,0,.3948,2.2221,2.3866,2.3866,0,0,0,1.6181.6761v.45h-6.9725v-.45a2.996,2.996,0,0,0,1.8037-.6608,3.913,3.913,0,0,0,.4042-2.2374V19.6079a5.3,5.3,0,0,0-.5248-2.5282,2.0372,2.0372,0,0,0-1.9727-.9669,3.9586,3.9586,0,0,0-2.4313.9019q-1.1738.9024-1.1749,1.176V26.129a3.7892,3.7892,0,0,0,.4184,2.254,3.13,3.13,0,0,0,1.7883.6442v.45h-7.1013Z"/><path class="cls-4" d="M141.6109,24.4061h.5307a8.4256,8.4256,0,0,0,.9964,2.8178,3.6428,3.6428,0,0,0,3.293,1.8038,2.635,2.635,0,0,0,1.903-.6691,2.2877,2.2877,0,0,0,.6986-1.73,2.3862,2.3862,0,0,0-.4019-1.3049A4.1311,4.1311,0,0,0,147.2135,24.1l-1.8025-1.0307a10.26,10.26,0,0,1-2.9136-2.1418,3.7606,3.7606,0,0,1-.935-2.5436,3.8082,3.8082,0,0,1,1.2884-2.9633,4.66,4.66,0,0,1,3.2363-1.1595,6.28,6.28,0,0,1,1.8758.3227,8.5636,8.5636,0,0,0,1.1512.3215.8119.8119,0,0,0,.4184-.08.6817.6817,0,0,0,.2258-.2576h.3865l.1111,4.4927h-.4976a7.4578,7.4578,0,0,0-.87-2.4314,3.1955,3.1955,0,0,0-2.8817-1.61,2.2878,2.2878,0,0,0-2.4148,2.319q0,1.48,2.2209,2.6394l2.1264,1.1442q3.429,1.8669,3.429,4.3473a3.8872,3.8872,0,0,1-1.4231,3.1074,5.553,5.553,0,0,1-3.7209,1.208,8.6478,8.6478,0,0,1-2.1855-.3227,9.9323,9.9323,0,0,0-1.4468-.3215.4718.4718,0,0,0-.338.1371.9362.9362,0,0,0-.2246.33h-.4184Z"/><path class="cls-4" d="M163.8459,15.3288a2.8653,2.8653,0,0,1,1.4574,2.2706,1.538,1.538,0,0,1-.3712.987,1.3834,1.3834,0,0,1-1.1429.4574,1.4289,1.4289,0,0,1-.99-.3865,2.2361,2.2361,0,0,1-.6182-1.1265l-.1939-.7742a1.96,1.96,0,0,0-.7257-1.2068,2.5707,2.5707,0,0,0-1.4006-.338,3.819,3.819,0,0,0-3.0992,1.6039,6.6989,6.6989,0,0,0-1.2635,4.2646,7.29,7.29,0,0,0,1.3923,4.37,4.3981,4.3981,0,0,0,3.76,1.9349,4.49,4.49,0,0,0,2.9786-1.098,10.2131,10.2131,0,0,0,1.6749-2l.45.2742a12.7135,12.7135,0,0,1-1.9325,3.0625,5.9118,5.9118,0,0,1-4.5081,2.16,6.0413,6.0413,0,0,1-4.4443-1.98,7.37,7.37,0,0,1-1.9313-5.3781,8.3835,8.3835,0,0,1,2.11-5.7326,6.7879,6.7879,0,0,1,5.3284-2.3982,5.8385,5.8385,0,0,1,3.47,1.0342"/><path class="cls-4" d="M168.6024,16.5879a6.8056,6.8056,0,0,1,5.2421-2.2139,7.161,7.161,0,0,1,5.2811,2.0933,7.5286,7.5286,0,0,1,2.0933,5.5707A8.2859,8.2859,0,0,1,179.19,27.61a6.5906,6.5906,0,0,1-5.248,2.3675,6.9206,6.9206,0,0,1-5.2339-2.2706,7.98,7.98,0,0,1-2.1405-5.6995,7.7158,7.7158,0,0,1,2.0353-5.4194m2.572-.41q-1.6134,1.4662-1.6134,5.0554a11.3562,11.3562,0,0,0,1.299,5.3461,3.974,3.974,0,0,0,3.6051,2.48,3.0671,3.0671,0,0,0,2.7836-1.6584,8.5119,8.5119,0,0,0,.9763-4.3473,11.5119,11.5119,0,0,0-1.2423-5.2492,3.8962,3.8962,0,0,0-3.5991-2.4632,3.2023,3.2023,0,0,0-2.2092.8368"/><path class="cls-4" d="M181.7188,36.1282a2.5913,2.5913,0,0,0,1.91-.6442,2.8962,2.8962,0,0,0,.409-1.7233V18.3039a2.6882,2.6882,0,0,0-.2979-1.5709,1.4392,1.4392,0,0,0-1.1194-.3451,3.2189,3.2189,0,0,0-.3309.0153q-.1526.0161-.4433.0639v-.5308l1.5307-.4987q.08-.016,3.2375-1.1111a.127.127,0,0,1,.1193.0721.325.325,0,0,1,.04.169V16.74a11.7041,11.7041,0,0,1,1.8688-1.5768,5.5741,5.5741,0,0,1,2.9786-.9018,4.859,4.859,0,0,1,3.8237,1.89,7.7436,7.7436,0,0,1,1.6027,5.1712,9.6276,9.6276,0,0,1-1.9242,5.839,5.7937,5.7937,0,0,1-4.8391,2.6228,4.8478,4.8478,0,0,1-1.5614-.2258,4.6736,4.6736,0,0,1-1.9006-1.24V33.6q0,1.6277.5331,1.9964a5.3321,5.3321,0,0,0,2.3167.5v.5626h-7.9536Zm6.352-7.9938a3.5116,3.5116,0,0,0,1.9562.539,3.5828,3.5828,0,0,0,2.9715-1.7292,8.1941,8.1941,0,0,0,1.2316-4.8166,6.5626,6.5626,0,0,0-1.28-4.4218,3.8526,3.8526,0,0,0-2.9715-1.4633,3.5528,3.5528,0,0,0-2.1737.7316,1.9563,1.9563,0,0,0-.9822,1.4385v8.0895a3.2627,3.2627,0,0,0,1.2482,1.6323"/><path class="cls-4" d="M209.45,15.9446a5.7484,5.7484,0,0,1,1.7068,4.4526H200.9314q.1613,3.7267,1.6914,5.43a4.7175,4.7175,0,0,0,3.6228,1.7021,4.5647,4.5647,0,0,0,2.85-.883,8.8779,8.8779,0,0,0,2.1418-2.507l.5638.1939a9.1716,9.1716,0,0,1-2.4716,3.7894,6.1585,6.1585,0,0,1-4.4359,1.7422,5.4241,5.4241,0,0,1-4.6771-2.2871,8.7519,8.7519,0,0,1-1.6513-5.2645,8.55,8.55,0,0,1,1.9172-5.5873,6.13,6.13,0,0,1,4.99-2.3521,5.6916,5.6916,0,0,1,3.9774,1.5708m-7.7124,1.2316a6.3786,6.3786,0,0,0-.7411,2.19h6.794a6.6642,6.6642,0,0,0-.6111-2.3995,2.78,2.78,0,0,0-2.6405-1.4172,3.0766,3.0766,0,0,0-2.8013,1.6264"/><path class="cls-4" d="M26.3343,5.9994A21.3343,21.3343,0,1,0,47.6692,27.3342,21.3352,21.3352,0,0,0,26.3343,5.9994M6.8375,22.9278,6.71,22.66q.2073-.867.4846-1.7033c1.955,4.7764,5.8922,10.7325,12.57,12.52a15.9888,15.9888,0,0,0,3.8686.5343c.0981.0011.104-.052.0047-.0639-4.079-.5047-9.1958-3.1393-12.0184-9.7218a21.7038,21.7038,0,0,1-1.6158-8.7289A20.1818,20.1818,0,0,1,31.4381,7.8138a14.2535,14.2535,0,0,0-12.477,3.4833c-3.2682,3.1972-4.2492,7.7077-2.7611,12.7016,2.1548,7.2278,7.1156,9.8057,10.8175,9.1414a4.8856,4.8856,0,0,0,3.1547-1.9172,4.6681,4.6681,0,0,0,.7553-3.5837,3.97,3.97,0,0,0-4.6109-3.2056,2.9794,2.9794,0,0,0-2.3911,3.5814s.0271.1147-.0461.1336-.1171-.0839-.1171-.0839a2.9256,2.9256,0,0,1-.0082-1.9373,3.4,3.4,0,0,1,2.514-2.2517A4.3667,4.3667,0,0,1,31.5658,27.48a4.8294,4.8294,0,0,1-1.17,4.462,6.8019,6.8019,0,0,1-3.1854,1.942,16.643,16.643,0,0,1-7.3224.2163c-6.74-1.3534-10.8045-6.7751-13.05-11.1721m22.1918-2.2056c4.079.5035,9.1958,3.1394,12.02,9.7218a21.6837,21.6837,0,0,1,1.6146,8.729,20.1825,20.1825,0,0,1-21.4341,7.6817,14.2538,14.2538,0,0,0,12.4758-3.4833c3.2705-3.1973,4.2516-7.7077,2.7623-12.7016-2.1536-7.229-7.1167-9.8069-10.8175-9.1415a4.88,4.88,0,0,0-3.1536,1.9172,4.6643,4.6643,0,0,0-.7564,3.5838,3.9714,3.9714,0,0,0,4.61,3.2055,2.9809,2.9809,0,0,0,2.3935-3.5814s-.0283-.1147.0461-.1336c.0721-.0189.1159.084.1159.084a2.92,2.92,0,0,1,.0082,1.936,3.3971,3.3971,0,0,1-2.5141,2.2529,4.3677,4.3677,0,0,1-5.2976-3.605,4.828,4.828,0,0,1,1.17-4.4608,6.8174,6.8174,0,0,1,3.1866-1.9432,16.6244,16.6244,0,0,1,7.3212-.2152c6.74,1.3534,10.8045,6.774,13.0515,11.1722l.1264.2671q-.2073.8688-.4858,1.7044c-1.9538-4.7764-5.89-10.7336-12.5692-12.52a15.982,15.982,0,0,0-3.8674-.5342c-.0981-.0024-.1052.052-.0059.0638"/><path class="cls-5" d="M56.99,47.7167a.2219.2219,0,0,1-.0674-.1631v-6.248a.2151.2151,0,0,1,.0674-.1666.2272.2272,0,0,1,.1631-.0627h.9a.2228.2228,0,0,1,.169.0627.2252.2252,0,0,1,.0626.1666v6.248a.2325.2325,0,0,1-.0626.1631.2174.2174,0,0,1-.169.0674h-.9a.2221.2221,0,0,1-.1631-.0674"/><path class="cls-5" d="M61.6978,47.7167a.2222.2222,0,0,1-.0674-.1631V41.3151a.2481.2481,0,0,1,.0626-.1726.2193.2193,0,0,1,.1667-.0662h.7387a.2924.2924,0,0,1,.1726.0426.52.52,0,0,1,.104.1111l2.7611,4.2929V41.3151a.2477.2477,0,0,1,.0627-.1726.2182.2182,0,0,1,.1655-.0662H66.67a.2428.2428,0,0,1,.1737.0662.24.24,0,0,1,.0662.1726v6.229a.2359.2359,0,0,1-.0662.1726.2267.2267,0,0,1-.1643.0674h-.747a.3343.3343,0,0,1-.2777-.1537l-2.7505-4.1972v4.12a.2216.2216,0,0,1-.0662.1678.2487.2487,0,0,1-.1738.0627H61.86a.22.22,0,0,1-.1619-.0674"/><path class="cls-5" d="M70.3135,47.7161a.2243.2243,0,0,1-.0674-.1619V41.3157a.2438.2438,0,0,1,.0627-.1726.2181.2181,0,0,1,.1678-.0674h2.3392q2.8154,0,2.8745,2.6063c.0107.3712.0178.6206.0178.7482,0,.1206-.0071.3676-.0178.7376a2.7036,2.7036,0,0,1-.72,1.9786,2.9986,2.9986,0,0,1-2.1075.6371H70.4766a.2242.2242,0,0,1-.1631-.0674m2.5023-1.0342a1.5827,1.5827,0,0,0,1.1583-.3593,1.7092,1.7092,0,0,0,.3747-1.1832c.0118-.383.0177-.6241.0177-.72q0-.1526-.0177-.708a1.3711,1.3711,0,0,0-1.5815-1.5343H71.5782v4.5046Z"/><path class="cls-5" d="M78.9011,47.7167a.2222.2222,0,0,1-.0674-.1631V41.3151a.2481.2481,0,0,1,.0626-.1726.2193.2193,0,0,1,.1667-.0662H83.28a.2382.2382,0,0,1,.1726.0662.2353.2353,0,0,1,.0662.1726v.6335a.2131.2131,0,0,1-.0662.1667.2408.2408,0,0,1-.1726.0626H80.1268v1.6962h2.9408a.2429.2429,0,0,1,.1737.0626.2166.2166,0,0,1,.0674.1679v.5933a.2167.2167,0,0,1-.0674.1679.2378.2378,0,0,1-.1737.0626H80.1268v1.7541h3.23a.2307.2307,0,0,1,.24.2387v.6324a.2186.2186,0,0,1-.0686.1678.2446.2446,0,0,1-.1713.0627H79.063a.22.22,0,0,1-.1619-.0674"/><path class="cls-5" d="M86.6966,47.7173a.2279.2279,0,0,1-.0662-.1631V41.3157a.2386.2386,0,0,1,.0627-.1726.2155.2155,0,0,1,.1666-.0674h2.5685a2.78,2.78,0,0,1,1.8108.5414,1.9325,1.9325,0,0,1,.6619,1.5862,1.9115,1.9115,0,0,1-.6572,1.5768,2.8057,2.8057,0,0,1-1.8155.5307H88v2.2434a.2345.2345,0,0,1-.0626.1631.2209.2209,0,0,1-.1667.0662H86.86a.2279.2279,0,0,1-.1631-.0662M89.38,44.2482a1.2474,1.2474,0,0,0,.8546-.2636.992.992,0,0,0,.2955-.7813,1.0388,1.0388,0,0,0-.2872-.78A1.1826,1.1826,0,0,0,89.38,42.14h-1.4v2.1087Z"/><path class="cls-5" d="M94.9,47.7167a.2222.2222,0,0,1-.0674-.1631V41.3151a.2481.2481,0,0,1,.0626-.1726.2193.2193,0,0,1,.1667-.0662h4.2173a.2382.2382,0,0,1,.1726.0662.2353.2353,0,0,1,.0662.1726v.6335a.2131.2131,0,0,1-.0662.1667.2408.2408,0,0,1-.1726.0626H96.1252v1.6962H99.066a.2429.2429,0,0,1,.1737.0626.2166.2166,0,0,1,.0674.1679v.5933a.2167.2167,0,0,1-.0674.1679.2378.2378,0,0,1-.1737.0626H96.1252v1.7541h3.23a.2307.2307,0,0,1,.24.2387v.6324a.2189.2189,0,0,1-.0686.1678.2447.2447,0,0,1-.1714.0627H95.0614a.22.22,0,0,1-.1619-.0674"/><path class="cls-5" d="M102.6955,47.7167a.2222.2222,0,0,1-.0674-.1631V41.3151a.2477.2477,0,0,1,.0627-.1726.2189.2189,0,0,1,.1666-.0662h.7388a.2923.2923,0,0,1,.1725.0426.52.52,0,0,1,.104.1111l2.7611,4.2929V41.3151a.2477.2477,0,0,1,.0627-.1726.2182.2182,0,0,1,.1655-.0662h.8061a.2428.2428,0,0,1,.1737.0662.24.24,0,0,1,.0662.1726v6.229a.2359.2359,0,0,1-.0662.1726.2266.2266,0,0,1-.1643.0674h-.747a.3343.3343,0,0,1-.2777-.1537l-2.7505-4.1972v4.12a.2216.2216,0,0,1-.0662.1678.2487.2487,0,0,1-.1738.0627h-.8049a.22.22,0,0,1-.1619-.0674"/><path class="cls-5" d="M111.3171,47.7161a.22.22,0,0,1-.0674-.1619V41.3157a.2438.2438,0,0,1,.0627-.1726.2174.2174,0,0,1,.1666-.0674h2.3392q2.8173,0,2.8746,2.6063c.0118.3712.0189.6206.0189.7482,0,.1206-.0071.3676-.0189.7376a2.7082,2.7082,0,0,1-.7187,1.9786,3.0025,3.0025,0,0,1-2.1075.6371H111.479a.2215.2215,0,0,1-.1619-.0674m2.5011-1.0342a1.5808,1.5808,0,0,0,1.1583-.3593,1.6976,1.6976,0,0,0,.3747-1.1832c.013-.383.0178-.6241.0178-.72,0-.1017-.0048-.3381-.0178-.708a1.37,1.37,0,0,0-1.5815-1.5343h-1.1879v4.5046Z"/><path class="cls-5" d="M119.9012,47.7167a.2219.2219,0,0,1-.0674-.1631V41.3151a.2481.2481,0,0,1,.0626-.1726.2191.2191,0,0,1,.1667-.0662H124.28a.2384.2384,0,0,1,.1726.0662.2353.2353,0,0,1,.0662.1726v.6335a.2131.2131,0,0,1-.0662.1667.2409.2409,0,0,1-.1726.0626h-3.1535v1.6962h2.9407a.243.243,0,0,1,.1738.0626.2166.2166,0,0,1,.0674.1679v.5933a.2167.2167,0,0,1-.0674.1679.2379.2379,0,0,1-.1738.0626h-2.9407v1.7541h3.23a.2307.2307,0,0,1,.24.2387v.6324a.2189.2189,0,0,1-.0686.1678.2447.2447,0,0,1-.1714.0627h-4.2941a.2194.2194,0,0,1-.1619-.0674"/><path class="cls-5" d="M127.6973,47.7167a.2266.2266,0,0,1-.0674-.1631V41.3151a.2477.2477,0,0,1,.0627-.1726.22.22,0,0,1,.1678-.0662h.7375a.29.29,0,0,1,.1726.0426.4981.4981,0,0,1,.1052.1111l2.76,4.2929V41.3151a.2477.2477,0,0,1,.0627-.1726.2191.2191,0,0,1,.1667-.0662h.8049a.2272.2272,0,0,1,.24.2388v6.229a.2359.2359,0,0,1-.0662.1726.224.224,0,0,1-.1631.0674h-.747a.3378.3378,0,0,1-.2789-.1537l-2.75-4.1972v4.12a.2216.2216,0,0,1-.0662.1678.2448.2448,0,0,1-.1738.0627H127.86a.2222.2222,0,0,1-.1631-.0674"/><path class="cls-5" d="M136.83,47.1991a2.652,2.652,0,0,1-.7707-1.916c-.0071-.1725-.0094-.4539-.0094-.8427,0-.3972.0023-.6844.0094-.8629a2.6424,2.6424,0,0,1,.78-1.9124,2.8687,2.8687,0,0,1,2.0354-.6844,3.5047,3.5047,0,0,1,1.4858.2919,2.3436,2.3436,0,0,1,.9775.7955,2.0859,2.0859,0,0,1,.3652,1.1359v.0189a.1643.1643,0,0,1-.0626.1289.2106.2106,0,0,1-.1395.0531h-.91a.2637.2637,0,0,1-.1726-.0484.3747.3747,0,0,1-.0958-.182,1.3965,1.3965,0,0,0-.5082-.8475,1.6407,1.6407,0,0,0-.948-.2447q-1.3811,0-1.4373,1.5425c-.0059.1726-.0106.4385-.0106.7955s.0047.63.0106.8144q.0568,1.5425,1.4373,1.5436a1.6461,1.6461,0,0,0,.9527-.2494,1.3674,1.3674,0,0,0,.5035-.8439.2993.2993,0,0,1,.0911-.182.2827.2827,0,0,1,.1773-.0473h.91a.2131.2131,0,0,1,.1489.0567.1642.1642,0,0,1,.0532.1442,2.0859,2.0859,0,0,1-.3652,1.1359,2.3519,2.3519,0,0,1-.9775.7955,3.523,3.523,0,0,1-1.4858.2919,2.8674,2.8674,0,0,1-2.0448-.6808"/><path class="cls-5" d="M144.7714,47.7167a.227.227,0,0,1-.0674-.1631V41.3151a.2477.2477,0,0,1,.0627-.1726.2225.2225,0,0,1,.169-.0662h4.215a.2272.2272,0,0,1,.24.2388v.6335a.2173.2173,0,0,1-.0662.1667.2436.2436,0,0,1-.1737.0626h-3.1524v1.6962h2.942a.246.246,0,0,1,.1725.0626.2166.2166,0,0,1,.0674.1679v.5933a.2167.2167,0,0,1-.0674.1679.2407.2407,0,0,1-.1725.0626h-2.942v1.7541h3.23a.2288.2288,0,0,1,.2387.2387v.6324a.2178.2178,0,0,1-.0674.1678.2406.2406,0,0,1-.1713.0627h-4.293a.2249.2249,0,0,1-.1643-.0674"/><path class="cls-5" d="M157.1707,47.621a2.182,2.182,0,0,1-.9279-.6809,1.58,1.58,0,0,1-.3357-.91.1933.1933,0,0,1,.0567-.143.1961.1961,0,0,1,.1442-.0579h.8522a.3066.3066,0,0,1,.1785.0437.446.446,0,0,1,.1194.1383.9707.9707,0,0,0,.44.5461,1.7279,1.7279,0,0,0,.94.221,1.8875,1.8875,0,0,0,1.0248-.2257.7092.7092,0,0,0,.3451-.6277.5906.5906,0,0,0-.1773-.4409,1.4452,1.4452,0,0,0-.526-.2966q-.351-.1242-1.04-.3074a3.9712,3.9712,0,0,1-1.6536-.7139,1.578,1.578,0,0,1-.5224-1.2694,1.6848,1.6848,0,0,1,.3025-.987,2.01,2.01,0,0,1,.8723-.68,3.2693,3.2693,0,0,1,1.3262-.2494,3.0983,3.0983,0,0,1,1.3617.2777,2.28,2.28,0,0,1,.877.6951,1.539,1.539,0,0,1,.32.8285.19.19,0,0,1-.0579.143.1931.1931,0,0,1-.143.058h-.8912a.2789.2789,0,0,1-.279-.1821.773.773,0,0,0-.3829-.5129,1.4777,1.4777,0,0,0-.805-.2057,1.5345,1.5345,0,0,0-.8439.2009.6591.6591,0,0,0-.305.5851.6435.6435,0,0,0,.1525.4409,1.2779,1.2779,0,0,0,.4846.3061,7.9906,7.9906,0,0,0,.9527.2967,6.6335,6.6335,0,0,1,1.3475.4326,1.77,1.77,0,0,1,.7422.6028,1.6606,1.6606,0,0,1,.2388.9291,1.7372,1.7372,0,0,1-.3392,1.0685,2.1232,2.1232,0,0,1-.9586.695,3.9261,3.9261,0,0,1-1.4231.24,3.7642,3.7642,0,0,1-1.4668-.2588"/><path class="cls-5" d="M164.3965,47.7167a.2266.2266,0,0,1-.0674-.1631V41.3151a.2481.2481,0,0,1,.0626-.1726.2227.2227,0,0,1,.1691-.0662h4.2149a.2272.2272,0,0,1,.24.2388v.6335a.2173.2173,0,0,1-.0662.1667.2439.2439,0,0,1-.1738.0626h-3.1523v1.6962h2.9419a.246.246,0,0,1,.1726.0626.2166.2166,0,0,1,.0674.1679v.5933a.2167.2167,0,0,1-.0674.1679.2408.2408,0,0,1-.1726.0626h-2.9419v1.7541h3.23a.2288.2288,0,0,1,.2388.2387v.6324a.2181.2181,0,0,1-.0674.1678.2406.2406,0,0,1-.1714.0627h-4.2929a.2249.2249,0,0,1-.1643-.0674"/><path class="cls-5" d="M172.1934,47.7173a.2242.2242,0,0,1-.0674-.1631V41.3157a.2438.2438,0,0,1,.0627-.1726.2183.2183,0,0,1,.1678-.0674h2.481a2.81,2.81,0,0,1,1.8356.5461,1.897,1.897,0,0,1,.6667,1.5531,1.9715,1.9715,0,0,1-.34,1.1737,1.8892,1.8892,0,0,1-.9444.6844l1.3983,2.4444a.23.23,0,0,1,.0307.1052.1853.1853,0,0,1-.0627.143.1967.1967,0,0,1-.1394.0579h-.8712a.3731.3731,0,0,1-.2364-.0662.646.646,0,0,1-.1477-.1927L174.79,45.254h-1.3321v2.3a.2339.2339,0,0,1-.0614.1631.2218.2218,0,0,1-.1679.0662h-.8723a.2259.2259,0,0,1-.1631-.0662m2.6169-3.546a1.2658,1.2658,0,0,0,.8653-.2588.9428.9428,0,0,0,.2931-.7482.973.973,0,0,0-.2931-.7565,1.2378,1.2378,0,0,0-.8653-.2683h-1.3522v2.0318Z"/><path class="cls-5" d="M182.0015,47.5153l-2.0495-6.1522-.02-.0851a.2009.2009,0,0,1,.0567-.1442.1969.1969,0,0,1,.1454-.0579h.8428a.2916.2916,0,0,1,.1962.0626.3381.3381,0,0,1,.1.1477l1.6194,4.936,1.6193-4.936a.2974.2974,0,0,1,.2966-.21h.844a.2009.2009,0,0,1,.1394.0579.191.191,0,0,1,.0615.1442l-.02.0851-2.0495,6.1522a.3532.3532,0,0,1-.3653.2683h-1.0519a.3524.3524,0,0,1-.3653-.2683"/><path class="cls-5" d="M188.8372,47.7167a.227.227,0,0,1-.0674-.1631v-6.248a.22.22,0,0,1,.0674-.1666A.2274.2274,0,0,1,189,41.0763h.9007a.2156.2156,0,0,1,.23.2293v6.248a.2325.2325,0,0,1-.0626.1631.2183.2183,0,0,1-.1678.0674H189a.2222.2222,0,0,1-.1631-.0674"/><path class="cls-5" d="M194.0558,47.1991a2.6471,2.6471,0,0,1-.7707-1.916c-.0071-.1725-.0106-.4539-.0106-.8427q0-.5958.0106-.8629a2.6336,2.6336,0,0,1,.7813-1.9124,2.8608,2.8608,0,0,1,2.0354-.6844,3.5028,3.5028,0,0,1,1.4846.2919,2.3292,2.3292,0,0,1,.9775.7955,2.0758,2.0758,0,0,1,.364,1.1359v.0189a.1641.1641,0,0,1-.0627.1289.2072.2072,0,0,1-.1382.0531h-.909a.265.265,0,0,1-.1737-.0484.3642.3642,0,0,1-.0958-.182,1.3965,1.3965,0,0,0-.5082-.8475,1.6407,1.6407,0,0,0-.948-.2447q-1.3812,0-1.4373,1.5425c-.0071.1726-.0094.4385-.0094.7955s.0023.63.0094.8144q.0567,1.5425,1.4373,1.5436a1.6437,1.6437,0,0,0,.9527-.2494,1.3728,1.3728,0,0,0,.5035-.8439.3126.3126,0,0,1,.091-.182.2869.2869,0,0,1,.1785-.0473h.909a.21.21,0,0,1,.1477.0567.1611.1611,0,0,1,.0532.1442,2.0758,2.0758,0,0,1-.364,1.1359,2.3375,2.3375,0,0,1-.9775.7955,3.5212,3.5212,0,0,1-1.4846.2919,2.87,2.87,0,0,1-2.046-.6808"/><path class="cls-5" d="M201.9983,47.7167a.2221.2221,0,0,1-.0673-.1631V41.3151a.2476.2476,0,0,1,.0626-.1726.2191.2191,0,0,1,.1667-.0662h4.2173a.2386.2386,0,0,1,.1726.0662.2353.2353,0,0,1,.0662.1726v.6335a.2131.2131,0,0,1-.0662.1667.2411.2411,0,0,1-.1726.0626H203.224v1.6962h2.9408a.2431.2431,0,0,1,.1738.0626.2166.2166,0,0,1,.0674.1679v.5933a.2167.2167,0,0,1-.0674.1679.2381.2381,0,0,1-.1738.0626H203.224v1.7541h3.23a.2307.2307,0,0,1,.24.2387v.6324a.2189.2189,0,0,1-.0686.1678.2447.2447,0,0,1-.1714.0627H202.16a.22.22,0,0,1-.162-.0674"/><path class="cls-5" d="M210.6855,47.621a2.182,2.182,0,0,1-.9279-.6809,1.58,1.58,0,0,1-.3357-.91.1933.1933,0,0,1,.0567-.143.1963.1963,0,0,1,.1443-.0579h.8522a.3064.3064,0,0,1,.1784.0437.446.446,0,0,1,.1194.1383.9707.9707,0,0,0,.44.5461,1.7279,1.7279,0,0,0,.94.221,1.8875,1.8875,0,0,0,1.0248-.2257.7092.7092,0,0,0,.3451-.6277.5906.5906,0,0,0-.1773-.4409,1.4452,1.4452,0,0,0-.526-.2966q-.351-.1242-1.04-.3074a3.9712,3.9712,0,0,1-1.6536-.7139,1.578,1.578,0,0,1-.5224-1.2694,1.6842,1.6842,0,0,1,.3026-.987,2.0094,2.0094,0,0,1,.8722-.68,3.2693,3.2693,0,0,1,1.3262-.2494,3.0983,3.0983,0,0,1,1.3617.2777,2.28,2.28,0,0,1,.877.6951,1.5382,1.5382,0,0,1,.32.8285.19.19,0,0,1-.0579.143.1931.1931,0,0,1-.143.058h-.8912a.2789.2789,0,0,1-.279-.1821.773.773,0,0,0-.3829-.5129,1.4775,1.4775,0,0,0-.805-.2057,1.5347,1.5347,0,0,0-.8439.2009.659.659,0,0,0-.3049.5851.6434.6434,0,0,0,.1524.4409,1.2779,1.2779,0,0,0,.4846.3061,7.9906,7.9906,0,0,0,.9527.2967,6.6335,6.6335,0,0,1,1.3475.4326,1.7712,1.7712,0,0,1,.7423.6028,1.6614,1.6614,0,0,1,.2387.9291,1.7366,1.7366,0,0,1-.3392,1.0685,2.1232,2.1232,0,0,1-.9586.695,3.9261,3.9261,0,0,1-1.4231.24,3.7642,3.7642,0,0,1-1.4668-.2588"/><path class="cls-4" d="M58.975,62.5818v.5047a.3251.3251,0,0,1-.0887.23.311.311,0,0,1-.2388.0958H57.5719a.3271.3271,0,0,1-.3274-.3263V54.07a.3105.3105,0,0,1,.0958-.2387.3333.3333,0,0,1,.2316-.0887h1.1572a.3056.3056,0,0,1,.3274.3274v3.0236a2.6289,2.6289,0,0,1,2.0968-.8995,2.5756,2.5756,0,0,1,2.1123.8995,3.811,3.811,0,0,1,.7895,2.3285c.0083.1087.013.2541.013.4361,0,.19-.0047.34-.013.4492a3.8116,3.8116,0,0,1-.7895,2.3557,2.591,2.591,0,0,1-2.1123.8853,2.6316,2.6316,0,0,1-2.1783-.9669m3.241-2.3013c.0082-.091.013-.2269.013-.409s-.0048-.3179-.013-.4078Q62.12,57.6519,60.65,57.6518a1.4291,1.4291,0,0,0-1.1642.4834,1.8885,1.8885,0,0,0-.4291,1.1642l-.0142.5178.0142.5318a2.2058,2.2058,0,0,0,.4232,1.2388,1.37,1.37,0,0,0,1.17.5035q1.4716,0,1.5662-1.8108"/><path class="cls-4" d="M66.3841,65.9187a.2579.2579,0,0,1-.0816-.1915.4191.4191,0,0,1,.0544-.2175l1.0614-2.5188-2.6145-6.17a.5252.5252,0,0,1-.0544-.19.37.37,0,0,1,.0946-.2115.2723.2723,0,0,1,.2056-.0875h1.1028a.3767.3767,0,0,1,.3676.2577l1.81,4.4537,1.8675-4.4537a.3747.3747,0,0,1,.3676-.2577h1.09a.2806.2806,0,0,1,.1962.0816.249.249,0,0,1,.09.19.5224.5224,0,0,1-.0555.2174l-3.8533,8.92A.4029.4029,0,0,1,67.65,66H66.5732a.2611.2611,0,0,1-.1891-.0815"/><path class="cls-4" d="M76.1332,63.3175a.314.314,0,0,1-.0945-.2317V54.22a.3451.3451,0,0,1,.0874-.2447.311.311,0,0,1,.2388-.0958h1.2387a.3092.3092,0,0,1,.2388.0958.3459.3459,0,0,1,.0886.2447v3.514h4.0176V54.22a.3459.3459,0,0,1,.0886-.2447.3092.3092,0,0,1,.2388-.0958h1.2257a.3315.3315,0,0,1,.2447.0958.3353.3353,0,0,1,.0945.2447v8.866a.3126.3126,0,0,1-.0945.2388.3459.3459,0,0,1-.2447.0886H82.276a.3267.3267,0,0,1-.3274-.3274v-3.65H77.931v3.65a.3281.3281,0,0,1-.0886.2317.3091.3091,0,0,1-.2388.0957H76.3649a.317.317,0,0,1-.2317-.0957"/><path class="cls-4" d="M86.45,62.67a3.4838,3.4838,0,0,1-.9456-2.4715l-.0142-.34.0142-.34a3.4992,3.4992,0,0,1,.96-2.4373,3.236,3.236,0,0,1,2.39-.8853,3.1616,3.1616,0,0,1,2.4846.98,3.7756,3.7756,0,0,1,.8782,2.6145v.2861a.3181.3181,0,0,1-.0946.2316.331.331,0,0,1-.2446.0958H87.355v.1087a2.1636,2.1636,0,0,0,.416,1.26,1.2666,1.2666,0,0,0,1.0686.5106,1.5657,1.5657,0,0,0,1.2942-.6264.7927.7927,0,0,1,.1974-.19.4682.4682,0,0,1,.2246-.0414h1.1713a.3106.3106,0,0,1,.21.0757.2242.2242,0,0,1,.0887.1832,1.2678,1.2678,0,0,1-.3877.7694,3.2324,3.2324,0,0,1-1.11.77,4.0363,4.0363,0,0,1-1.6749.3262A3.2718,3.2718,0,0,1,86.45,62.67m3.9159-3.4112v-.0413a1.9717,1.9717,0,0,0-.4019-1.2931,1.3549,1.3549,0,0,0-1.11-.4906,1.3367,1.3367,0,0,0-1.1039.4906,1.9955,1.9955,0,0,0-.3948,1.2931v.0413Z"/><path class="cls-4" d="M94.4433,63.27a2.3177,2.3177,0,0,1-.9125-.7553,1.8521,1.8521,0,0,1,.4149-2.5472,4.4957,4.4957,0,0,1,2.0567-.7765l1.8663-.2719v-.286a1.2225,1.2225,0,0,0-.299-.9,1.33,1.33,0,0,0-.9681-.299,1.3831,1.3831,0,0,0-.7281.17,2.4028,2.4028,0,0,0-.4432.3333c-.1087.1182-.1808.1962-.2163.2317a.2079.2079,0,0,1-.2057.1631H93.96a.3.3,0,0,1-.21-.0816.2776.2776,0,0,1-.09-.2175,1.4836,1.4836,0,0,1,.3345-.7765,2.5178,2.5178,0,0,1,.9869-.7494,3.8419,3.8419,0,0,1,1.6347-.3121,3.2426,3.2426,0,0,1,2.3415.721,2.5305,2.5305,0,0,1,.7376,1.8936v4.2764a.3223.3223,0,0,1-.091.23.3049.3049,0,0,1-.2376.0957H98.2635a.3247.3247,0,0,1-.3262-.3262v-.5319a2.2291,2.2291,0,0,1-.8522.7151,3.0154,3.0154,0,0,1-1.3688.279,2.903,2.903,0,0,1-1.273-.279m2.9621-1.5047a1.9717,1.9717,0,0,0,.4763-1.43v-.286l-1.3616.2175a2.9988,2.9988,0,0,0-1.1915.3948.7968.7968,0,0,0-.4018.6678.7781.7781,0,0,0,.3676.682,1.564,1.564,0,0,0,.8865.2447,1.6355,1.6355,0,0,0,1.2245-.4906"/><path class="cls-4" d="M101.5459,63.3175a.3141.3141,0,0,1-.0946-.2317v-9.015a.3083.3083,0,0,1,.0946-.2387.3272.3272,0,0,1,.23-.0887h1.1311a.3056.3056,0,0,1,.3274.3274v9.015a.3281.3281,0,0,1-.0886.2317.3109.3109,0,0,1-.2388.0957h-1.1311a.3141.3141,0,0,1-.23-.0957"/><path class="cls-4" d="M106.3869,62.7657a2.64,2.64,0,0,1-.6181-1.8994V57.7742H104.692a.3017.3017,0,0,1-.2317-.1016.3392.3392,0,0,1-.0957-.2388v-.7754a.3269.3269,0,0,1,.3274-.3274h1.0768v-2.26a.3083.3083,0,0,1,.0945-.2388.3255.3255,0,0,1,.2305-.0887h1.104a.322.322,0,0,1,.2387.0887.3265.3265,0,0,1,.0887.2388v2.26h1.7009a.3074.3074,0,0,1,.3286.3274v.7754a.3369.3369,0,0,1-.0958.2459.3212.3212,0,0,1-.2328.0945h-1.7009v2.955a1.5769,1.5769,0,0,0,.2033.8853.7637.7637,0,0,0,.6808.3h.94a.3267.3267,0,0,1,.3274.3274v.8439a.328.328,0,0,1-.0887.2317.308.308,0,0,1-.2387.0946h-1.1028a2.461,2.461,0,0,1-1.8593-.6466"/><path class="cls-4" d="M110.997,63.3175a.314.314,0,0,1-.0945-.2317v-9.015a.3083.3083,0,0,1,.0945-.2387.3275.3275,0,0,1,.2305-.0887H112.44a.3056.3056,0,0,1,.3274.3274v3.1051a2.7194,2.7194,0,0,1,2.2056-.9811,2.58,2.58,0,0,1,2.0035.8239,3.2131,3.2131,0,0,1,.747,2.24v3.8273a.3272.3272,0,0,1-.0875.2317.31.31,0,0,1-.2375.0957h-1.2258a.311.311,0,0,1-.2316-.0957.3148.3148,0,0,1-.0958-.2317V59.3413a1.8326,1.8326,0,0,0-.3888-1.247,1.4145,1.4145,0,0,0-1.1241-.4421,1.4931,1.4931,0,0,0-1.143.4492,1.7383,1.7383,0,0,0-.422,1.24v3.7445a.3281.3281,0,0,1-.0886.2317.3091.3091,0,0,1-.2388.0957h-1.2127a.3145.3145,0,0,1-.2305-.0957"/><path class="cls-4" d="M120.4206,63.2424a2.6515,2.6515,0,0,1-1.0271-.7222,1.2243,1.2243,0,0,1-.3345-.7139.2734.2734,0,0,1,.0957-.2187.3238.3238,0,0,1,.2175-.0815h1.0756a.2565.2565,0,0,1,.2045.0957c.0366.0272.1324.1088.2849.2447a1.6972,1.6972,0,0,0,.5449.34,1.902,1.902,0,0,0,.695.1229,1.69,1.69,0,0,0,.9-.2186.7108.7108,0,0,0,.1973-1.0614,1.3484,1.3484,0,0,0-.5649-.32,9.8744,9.8744,0,0,0-1.2128-.3061,3.639,3.639,0,0,1-1.7079-.7494,1.7161,1.7161,0,0,1-.552-1.3344,1.8084,1.8084,0,0,1,.3262-1.0284,2.3569,2.3569,0,0,1,.974-.7895,3.5781,3.5781,0,0,1,1.546-.3062,3.9111,3.9111,0,0,1,1.5791.292,2.8289,2.8289,0,0,1,1.0165.695,1.17,1.17,0,0,1,.3464.7151.2915.2915,0,0,1-.0887.21.2829.2829,0,0,1-.2116.0886h-1.007a.3755.3755,0,0,1-.2317-.0957,3.3785,3.3785,0,0,1-.299-.2577,1.517,1.517,0,0,0-.4775-.3,1.7292,1.7292,0,0,0-.6395-.1087,1.237,1.237,0,0,0-.7837.2186.6869.6869,0,0,0-.2789.5709.6352.6352,0,0,0,.1359.422,1.2849,1.2849,0,0,0,.5319.3132,7.4609,7.4609,0,0,0,1.1844.3,3.7167,3.7167,0,0,1,1.8711.8038,1.7779,1.7779,0,0,1,.5661,1.3344,1.8312,1.8312,0,0,1-.8309,1.552,3.9262,3.9262,0,0,1-2.3285.5993,4.2548,4.2548,0,0,1-1.7163-.3062"/><path class="cls-4" d="M127.3728,62.7183a3.159,3.159,0,0,1-.9467-2.3013l-.013-.5449.013-.5449a3.1552,3.1552,0,0,1,.9467-2.3013,3.3639,3.3639,0,0,1,2.39-.8309,3.9123,3.9123,0,0,1,1.8049.3806,2.8213,2.8213,0,0,1,1.1028.9337,2.1511,2.1511,0,0,1,.3889,1.0414.2647.2647,0,0,1-.09.2316.3327.3327,0,0,1-.2376.0946h-1.1973a.333.333,0,0,1-.2128-.06.5993.5993,0,0,1-.1418-.2116,1.5993,1.5993,0,0,0-.5378-.7624,1.47,1.47,0,0,0-.851-.2316,1.3832,1.3832,0,0,0-1.09.4432,2.0564,2.0564,0,0,0-.422,1.34l-.0142.5047.0142.4492q.0532,1.7835,1.5118,1.7836a1.4557,1.4557,0,0,0,.8569-.23,1.6143,1.6143,0,0,0,.5319-.7636.5926.5926,0,0,1,.1418-.21.3266.3266,0,0,1,.2128-.0614h1.1973a.3342.3342,0,0,1,.2376.0957.2627.2627,0,0,1,.09.23,2.1288,2.1288,0,0,1-.383,1.0212,2.8736,2.8736,0,0,1-1.0886.9409,3.8315,3.8315,0,0,1-1.825.3948,3.3693,3.3693,0,0,1-2.39-.831"/><path class="cls-4" d="M135.1426,62.7252a3.1808,3.1808,0,0,1-.94-2.2541l-.0142-.5992.0142-.5993a3.153,3.153,0,0,1,.9527-2.2469,4.0332,4.0332,0,0,1,4.9041,0,3.1685,3.1685,0,0,1,.9538,2.2469c.0071.1088.0118.3085.0118.5993s-.0047.4905-.0118.5992a3.1908,3.1908,0,0,1-.94,2.2541,4.1016,4.1016,0,0,1-4.9312,0m3.5826-.9811a2.1508,2.1508,0,0,0,.435-1.3415c.0082-.09.013-.2671.013-.5307s-.0048-.4409-.013-.5307A2.1513,2.1513,0,0,0,138.7252,58a1.5969,1.5969,0,0,0-2.2351,0,2.1587,2.1587,0,0,0-.435,1.3416l-.0142.5307.0142.5307a2.1581,2.1581,0,0,0,.435,1.3415,1.5967,1.5967,0,0,0,2.2351,0"/><path class="cls-4" d="M142.6463,65.9115a.3091.3091,0,0,1-.0957-.2388v-9.015a.3127.3127,0,0,1,.0957-.2388.3324.3324,0,0,1,.2317-.0874h1.0756a.3038.3038,0,0,1,.3274.3262v.5449a2.5693,2.5693,0,0,1,2.1784-1.0082,2.6215,2.6215,0,0,1,2.1122.8652,3.7233,3.7233,0,0,1,.79,2.3356c.0082.1087.013.2683.013.4763,0,.2175-.0048.3818-.013.4905a3.7254,3.7254,0,0,1-.79,2.3085,2.6007,2.6007,0,0,1-2.1122.8782,2.4513,2.4513,0,0,1-2.0969-.9669v3.0909a.3054.3054,0,0,1-.3274.3274H142.878a.3281.3281,0,0,1-.2317-.0886m4.8757-5.631c.0083-.091.013-.2269.013-.409s-.0047-.3179-.013-.4078q-.0957-1.8119-1.5661-1.8119a1.368,1.368,0,0,0-1.17.5047,2.203,2.203,0,0,0-.4232,1.2387l-.0141.5177.0141.5307a1.8865,1.8865,0,0,0,.4291,1.1643,1.4258,1.4258,0,0,0,1.1643.4834q1.4715,0,1.5661-1.8108"/><path class="cls-4" d="M151.5452,62.67a3.4894,3.4894,0,0,1-.9456-2.4715l-.0129-.34.0129-.34a3.5054,3.5054,0,0,1,.96-2.4373,3.241,3.241,0,0,1,2.3912-.8853,3.157,3.157,0,0,1,2.4833.98,3.77,3.77,0,0,1,.8794,2.6145v.2861a.3148.3148,0,0,1-.0957.2316.3294.3294,0,0,1-.2447.0958h-4.5211v.1087a2.1629,2.1629,0,0,0,.4161,1.26,1.2648,1.2648,0,0,0,1.0685.5106,1.5621,1.5621,0,0,0,1.2931-.6264.7906.7906,0,0,1,.1985-.19.4634.4634,0,0,1,.2234-.0414h1.1714a.3138.3138,0,0,1,.2116.0757.2264.2264,0,0,1,.0874.1832,1.2673,1.2673,0,0,1-.3877.7694,3.21,3.21,0,0,1-1.11.77,4.0273,4.0273,0,0,1-1.6737.3262,3.2751,3.2751,0,0,1-2.4054-.8782m3.916-3.4112v-.0413a1.9717,1.9717,0,0,0-.4019-1.2931,1.3542,1.3542,0,0,0-1.1087-.4906,1.3354,1.3354,0,0,0-1.104.4906,1.9955,1.9955,0,0,0-.3948,1.2931v.0413Z"/></g></g></svg>