<svg id="Layer_1" data-name="Layer 1" xmlns="http://www.w3.org/2000/svg" xmlns:xlink="http://www.w3.org/1999/xlink" width="400" height="72" viewBox="0 0 400 72"><defs><style>.cls-1{fill:none;}.cls-2{fill:#fff;}.cls-3{clip-path:url(#clip-path);}.cls-4{clip-path:url(#clip-path-2);}.cls-5{fill:#0f9ba6;}.cls-6{fill:#4c5356;}</style><clipPath id="clip-path"><rect class="cls-1" x="5" y="9.5" width="260.6937" height="53"/></clipPath><clipPath id="clip-path-2"><rect class="cls-1" x="5" y="9.4994" width="260.6937" height="53.0006"/></clipPath></defs><rect class="cls-2" width="400" height="72"/><g class="cls-3"><g class="cls-4"><path class="cls-5" d="M69.2273,37.9032q2.4006-.26,3-.8868.6012-.6253.6-3.2726V16.0021q0-2.2-.6695-2.86a4.9545,4.9545,0,0,0-2.9306-.8207v-.7591h11.361v.7591a4.9548,4.9548,0,0,0-2.9247.8207q-.6761.6608-.6768,2.86v7.9811H89.4283V16.0021a4.2676,4.2676,0,0,0-.6592-2.86,4.9361,4.9361,0,0,0-2.9408-.8207v-.7591H97.1892v.7591a4.9466,4.9466,0,0,0-2.93.8207q-.6717.6608-.671,2.86v18.22q0,2.2289.671,2.8557a5.3222,5.3222,0,0,0,2.93.8251v.7606H85.8283v-.7606q2.42-.2377,3.01-.8765.59-.6364.59-3.2829V25.7832H76.9868v8.4392q0,2.2289.6768,2.8645a5.1875,5.1875,0,0,0,2.9247.8163v.7606H69.2273Z"/><path class="cls-5" d="M110.626,21.8527a7.14,7.14,0,0,1,2.12,5.5307H100.0447q.2,4.6293,2.101,6.7449a5.86,5.86,0,0,0,4.5,2.1142,5.67,5.67,0,0,0,3.54-1.0967,11.0289,11.0289,0,0,0,2.66-3.1141l.7.2408a11.3945,11.3945,0,0,1-3.07,4.7071,7.65,7.65,0,0,1-5.51,2.1641,6.7377,6.7377,0,0,1-5.81-2.841,10.8714,10.8714,0,0,1-2.0511-6.5393,10.6208,10.6208,0,0,1,2.3814-6.94,7.615,7.615,0,0,1,6.1987-2.9217,7.07,7.07,0,0,1,4.9405,1.9512m-9.58,1.53a7.9231,7.9231,0,0,0-.9205,2.7205h8.4392a8.2782,8.2782,0,0,0-.7591-2.98,3.4529,3.4529,0,0,0-3.28-1.76,3.8216,3.8216,0,0,0-3.48,2.02"/><path class="cls-5" d="M118.3046,29.8424a43.6792,43.6792,0,0,1,7.34-3.2594v-1.7a7.0331,7.0331,0,0,0-.3979-2.841,2.8555,2.8555,0,0,0-2.8218-1.34,3.8834,3.8834,0,0,0-1.94.5213,1.6507,1.6507,0,0,0-.9206,1.48,5.37,5.37,0,0,0,.1013.81,5.8062,5.8062,0,0,1,.1.73,1.666,1.666,0,0,1-.7414,1.5607,1.8546,1.8546,0,0,1-.9984.2584,1.6759,1.6759,0,0,1-1.3816-.5887,2.029,2.029,0,0,1-.48-1.3111,4.1633,4.1633,0,0,1,1.731-2.9291,7.4315,7.4315,0,0,1,5.07-1.5313q3.8826,0,5.2605,2.5209a8.7045,8.7045,0,0,1,.74,4.02v8.0208a5.3507,5.3507,0,0,0,.16,1.6,1.0425,1.0425,0,0,0,1.0792.78,1.8142,1.8142,0,0,0,.7605-.1395,7.9429,7.9429,0,0,0,1.04-.6813v1.041a6.4931,6.4931,0,0,1-1.3787,1.28,4.0256,4.0256,0,0,1-2.28.759,2.2244,2.2244,0,0,1-1.97-.8794,3.9484,3.9484,0,0,1-.671-2.1,18.8586,18.8586,0,0,1-2.5987,1.96,6.829,6.829,0,0,1-3.4606,1.0791,4.1554,4.1554,0,0,1-2.98-1.21,4.0756,4.0756,0,0,1-1.2612-3.07,5.6975,5.6975,0,0,1,2.9012-4.8406m7.34-2.26a18.4057,18.4057,0,0,0-3.8,1.68q-2.8806,1.7817-2.8791,4.0405a3.07,3.07,0,0,0,1.2,2.6795,2.9088,2.9088,0,0,0,1.74.5608,4.7739,4.7739,0,0,0,2.53-.74,2.17,2.17,0,0,0,1.21-1.8808Z"/><path class="cls-5" d="M132.1879,38.1032a4.7342,4.7342,0,0,0,2.5209-.75,2.8966,2.8966,0,0,0,.6592-2.23v-19.54a5.1428,5.1428,0,0,0-.2187-1.8206,1.6149,1.6149,0,0,0-1.6209-.84,3.3,3.3,0,0,0-.6093.06q-.33.0594-.831.1791v-.6592q2.7-.72,6.5-1.92a.1549.1549,0,0,1,.1718.1189,2.8737,2.8737,0,0,1,.0293.5212v23.98a3.0064,3.0064,0,0,0,.5991,2.2508,4.6664,4.6664,0,0,0,2.4812.65v.5594h-9.6813Z"/><path class="cls-5" d="M151.6831,20.2224v1.4389h-4.08l-.0411,11.5224a7.7564,7.7564,0,0,0,.26,2.2992,1.8493,1.8493,0,0,0,1.8808,1.38,2.2726,2.2726,0,0,0,1.2509-.3391,6.5963,6.5963,0,0,0,1.21-1.0806l.52.44-.439.599a6.4125,6.4125,0,0,1-2.2009,1.9806,5.0082,5.0082,0,0,1-2.2419.58,3.1526,3.1526,0,0,1-3.1992-2.0995,8.7028,8.7028,0,0,1-.46-3.1611V21.6613h-2.18a.5838.5838,0,0,1-.1512-.119.2564.2564,0,0,1-.0484-.16.475.475,0,0,1,.09-.31,6.2314,6.2314,0,0,1,.57-.5109,17.0427,17.0427,0,0,0,1.9909-1.85q.61-.7091,2.87-3.75a.6778.6778,0,0,1,.31.04c.0323.0264.05.1277.05.3v4.9214Z"/><path class="cls-5" d="M153.0123,38.1032a3.5036,3.5036,0,0,0,2.1494-.81,4.8486,4.8486,0,0,0,.5109-2.79V15.302a3.5511,3.5511,0,0,0-.2921-1.65q-.2886-.5308-1.41-.53a3.151,3.151,0,0,0-.4287.0293c-.1395.0206-.2981.0441-.47.0705v-.7194c.5844-.1733,1.31-.3832,2.17-.63s1.4564-.4243,1.79-.5315l1.9189-.599.04.1395V23.1628a13.0349,13.0349,0,0,1,2.2419-2.12,6.6123,6.6123,0,0,1,3.8012-1.201,4.385,4.385,0,0,1,4.4178,2.7206,9.3991,9.3991,0,0,1,.64,3.7806v8.16a5.0811,5.0811,0,0,0,.49,2.76,2.9642,2.9642,0,0,0,2.01.84v.5594h-8.6609v-.5594a3.7208,3.7208,0,0,0,2.24-.8207,4.8609,4.8609,0,0,0,.5022-2.7793v-8.1a6.5845,6.5845,0,0,0-.6519-3.14,2.5309,2.5309,0,0,0-2.45-1.201,4.9174,4.9174,0,0,0-3.02,1.12q-1.458,1.121-1.4594,1.4608v9.86q0,2.24.52,2.8a3.8855,3.8855,0,0,0,2.2214.8v.5594h-8.8209Z"/><path class="cls-5" d="M174.6911,32.3631h.6593a10.4662,10.4662,0,0,0,1.2376,3.5,4.5249,4.5249,0,0,0,4.09,2.24,3.2739,3.2739,0,0,0,2.3639-.831,2.842,2.842,0,0,0,.8677-2.1495,2.9649,2.9649,0,0,0-.4992-1.6209,5.1326,5.1326,0,0,0-1.76-1.52l-2.239-1.28a12.7445,12.7445,0,0,1-3.6191-2.66,4.671,4.671,0,0,1-1.1614-3.16,4.73,4.73,0,0,1,1.6-3.6807,5.788,5.788,0,0,1,4.02-1.44,7.8,7.8,0,0,1,2.33.4009,10.6308,10.6308,0,0,0,1.43.3993,1.01,1.01,0,0,0,.52-.1.8472.8472,0,0,0,.28-.32h.48l.138,5.5806h-.6181a9.2616,9.2616,0,0,0-1.0806-3.02,3.9689,3.9689,0,0,0-3.5794-2,2.8418,2.8418,0,0,0-3,2.8806q0,1.8389,2.7588,3.2785l2.6413,1.4212q4.2593,2.319,4.2592,5.4a4.8284,4.8284,0,0,1-1.7677,3.86,6.8975,6.8975,0,0,1-4.6219,1.5,10.7465,10.7465,0,0,1-2.7147-.4008,12.3313,12.3313,0,0,0-1.7971-.3993.586.586,0,0,0-.42.17,1.1606,1.1606,0,0,0-.2789.41h-.52Z"/><path class="cls-5" d="M202.31,21.0878a3.559,3.559,0,0,1,1.81,2.82,1.91,1.91,0,0,1-.461,1.2259,1.7183,1.7183,0,0,1-1.42.5682,1.7747,1.7747,0,0,1-1.23-.48,2.7774,2.7774,0,0,1-.7679-1.3992l-.2407-.9616a2.4357,2.4357,0,0,0-.9015-1.4991,3.1928,3.1928,0,0,0-1.74-.42,4.7435,4.7435,0,0,0-3.85,1.9924,8.3205,8.3205,0,0,0-1.57,5.2972,9.0558,9.0558,0,0,0,1.73,5.428,5.463,5.463,0,0,0,4.67,2.4034,5.5781,5.5781,0,0,0,3.7-1.3639,12.6874,12.6874,0,0,0,2.08-2.4842l.5594.3406a15.7937,15.7937,0,0,1-2.4,3.8041,7.3433,7.3433,0,0,1-5.6,2.6824,7.5038,7.5038,0,0,1-5.52-2.4592,9.1545,9.1545,0,0,1-2.3991-6.68,10.413,10.413,0,0,1,2.6208-7.1208A8.4311,8.4311,0,0,1,198,19.8031a7.2524,7.2524,0,0,1,4.3107,1.2847"/><path class="cls-5" d="M208.2187,22.6517a8.4537,8.4537,0,0,1,6.5114-2.75,8.8953,8.8953,0,0,1,6.56,2.6,9.3523,9.3523,0,0,1,2.6,6.92,10.2924,10.2924,0,0,1-2.5209,6.9211,8.1863,8.1863,0,0,1-6.5188,2.9408,8.5964,8.5964,0,0,1-6.5012-2.82,9.9122,9.9122,0,0,1-2.6589-7.08,9.5843,9.5843,0,0,1,2.5283-6.7317m3.1948-.51q-2.0041,1.8213-2.0041,6.28a14.1059,14.1059,0,0,0,1.6135,6.6407q1.6143,3.081,4.4781,3.08a3.81,3.81,0,0,0,3.4576-2.06,10.5738,10.5738,0,0,0,1.2127-5.4,14.2986,14.2986,0,0,0-1.5431-6.52,4.84,4.84,0,0,0-4.4707-3.06,3.9774,3.9774,0,0,0-2.744,1.0394"/><path class="cls-5" d="M224.5111,46.9237a3.218,3.218,0,0,0,2.3726-.8,3.5967,3.5967,0,0,0,.5081-2.1406v-19.2a3.34,3.34,0,0,0-.37-1.9512,1.7878,1.7878,0,0,0-1.39-.4287,3.9881,3.9881,0,0,0-.4111.0191q-.1895.02-.5506.0793v-.6593l1.9013-.62q.0992-.02,4.0214-1.38a.1579.1579,0,0,1,.1483.09.4048.4048,0,0,1,.05.21v2.6985a14.5352,14.5352,0,0,1,2.3213-1.9586,6.9241,6.9241,0,0,1,3.7-1.12,6.0359,6.0359,0,0,1,4.75,2.3476,9.6189,9.6189,0,0,1,1.9908,6.4234,11.9583,11.9583,0,0,1-2.39,7.2529,7.1963,7.1963,0,0,1-6.0108,3.258,6.02,6.02,0,0,1-1.9395-.2805,5.8062,5.8062,0,0,1-2.3609-1.54v6.56q0,2.0217.6622,2.48a6.6221,6.6221,0,0,0,2.8777.6211v.6988h-9.88Zm7.89-9.9294a4.3619,4.3619,0,0,0,2.43.6695,4.4505,4.4505,0,0,0,3.6911-2.148,10.1782,10.1782,0,0,0,1.53-5.9829q0-3.6735-1.59-5.4926a4.786,4.786,0,0,0-3.6911-1.8176,4.4122,4.4122,0,0,0-2.7.9088,2.43,2.43,0,0,0-1.22,1.7868V34.9667a4.0536,4.0536,0,0,0,1.55,2.0276"/><path class="cls-5" d="M258.9573,21.8527a7.14,7.14,0,0,1,2.12,5.5307H248.376q.2,4.6293,2.101,6.7449a5.86,5.86,0,0,0,4.5,2.1142,5.67,5.67,0,0,0,3.54-1.0967,11.0271,11.0271,0,0,0,2.66-3.1141l.7.2408a11.3945,11.3945,0,0,1-3.07,4.7071,7.65,7.65,0,0,1-5.51,2.1641,6.7377,6.7377,0,0,1-5.81-2.841,10.8714,10.8714,0,0,1-2.0511-6.5393,10.6208,10.6208,0,0,1,2.3814-6.94,7.6149,7.6149,0,0,1,6.1987-2.9217,7.07,7.07,0,0,1,4.94,1.9512m-9.58,1.53a7.9252,7.9252,0,0,0-.9206,2.7205h8.4393a8.2782,8.2782,0,0,0-.7591-2.98,3.453,3.453,0,0,0-3.28-1.76,3.8216,3.8216,0,0,0-3.48,2.02"/><path class="cls-5" d="M31.5,9.4993A26.5,26.5,0,1,0,58.0015,36,26.5014,26.5014,0,0,0,31.5,9.4993M7.2825,30.5268l-.1586-.3332q.2577-1.077.602-2.1157c2.4284,5.933,7.3189,13.3312,15.6143,15.5512a19.8538,19.8538,0,0,0,4.8054.6636c.1219.0015.1292-.0646.0059-.0793-5.0668-.6269-11.4226-3.9-14.9287-12.0759a26.96,26.96,0,0,1-2.007-10.8427A25.0687,25.0687,0,0,1,37.84,11.753,17.7052,17.7052,0,0,0,22.3418,16.08c-4.06,3.9715-5.2782,9.5742-3.43,15.7773,2.6765,8.9781,8.8386,12.18,13.437,11.3551a6.0689,6.0689,0,0,0,3.9186-2.3814,5.8,5.8,0,0,0,.9382-4.4516,4.9307,4.9307,0,0,0-5.7275-3.9818,3.701,3.701,0,0,0-2.97,4.4487s.0338.1424-.0572.1659-.1454-.1043-.1454-.1043a3.633,3.633,0,0,1-.01-2.4063,4.223,4.223,0,0,1,3.1228-2.797,5.4241,5.4241,0,0,1,6.5805,4.4766,5.9989,5.9989,0,0,1-1.4535,5.5424,8.45,8.45,0,0,1-3.9568,2.4123,20.6734,20.6734,0,0,1-9.0955.2687c-8.3717-1.6811-13.4209-8.4158-16.21-13.8775m27.5654-2.74c5.0668.6254,11.4226,3.8995,14.93,12.0759a26.9332,26.9332,0,0,1,2.0055,10.8427,25.0694,25.0694,0,0,1-26.6243,9.5418,17.705,17.705,0,0,0,15.4968-4.3268c4.0625-3.9714,5.2812-9.5741,3.4312-15.7772-2.675-8.98-8.84-12.1817-13.437-11.3551A6.0621,6.0621,0,0,0,26.7332,31.17a5.7938,5.7938,0,0,0-.94,4.4516,4.9332,4.9332,0,0,0,5.726,3.9818,3.7028,3.7028,0,0,0,2.9731-4.4487s-.0352-.1424.0573-.1659c.09-.0235.1439.1042.1439.1042a3.6271,3.6271,0,0,1,.01,2.405,4.22,4.22,0,0,1-3.1229,2.7983,5.4253,5.4253,0,0,1-6.5805-4.478,5.9975,5.9975,0,0,1,1.4535-5.541,8.47,8.47,0,0,1,3.9583-2.4137,20.6509,20.6509,0,0,1,9.094-.2672c8.3717,1.6811,13.4209,8.4143,16.2119,13.8774l.1571.3319q-.2577,1.0791-.6034,2.1171C52.8451,37.99,47.956,30.59,39.6592,28.3715a19.8521,19.8521,0,0,0-4.8039-.6636c-.1219-.0029-.1307.0646-.0074.0793"/><path class="cls-6" d="M69.5787,61.3185a.2759.2759,0,0,1-.0837-.2026V53.355a.2678.2678,0,0,1,.0837-.207.2824.2824,0,0,1,.2026-.0778h1.1173a.2768.2768,0,0,1,.21.0778.28.28,0,0,1,.0778.207v7.7609a.2889.2889,0,0,1-.0778.2026.27.27,0,0,1-.21.0837H69.7813a.2759.2759,0,0,1-.2026-.0837"/><path class="cls-6" d="M75.4271,61.3185a.2759.2759,0,0,1-.0837-.2026V53.3668a.3078.3078,0,0,1,.0778-.2144.272.272,0,0,1,.207-.0822h.9177a.3637.3637,0,0,1,.2143.0528.6505.6505,0,0,1,.1292.138l3.43,5.3326V53.3668a.3079.3079,0,0,1,.0779-.2144.2708.2708,0,0,1,.2055-.0822h1.0013a.3017.3017,0,0,1,.2158.0822.298.298,0,0,1,.0823.2144v7.7374a.293.293,0,0,1-.0823.2143.2815.2815,0,0,1-.204.0837h-.9279a.4156.4156,0,0,1-.3451-.1908l-3.4165-5.2136v5.1181a.2754.2754,0,0,1-.0822.2085.3088.3088,0,0,1-.2158.0778h-1a.2726.2726,0,0,1-.2011-.0837"/><path class="cls-6" d="M86.1291,61.3178a.2786.2786,0,0,1-.0837-.2011V53.3675a.3029.3029,0,0,1,.0778-.2144.2711.2711,0,0,1,.2085-.0837h2.9056q3.4972,0,3.5707,3.2374c.0132.461.022.7708.022.9294,0,.15-.0088.4566-.022.9162a3.3583,3.3583,0,0,1-.8942,2.4577,3.7243,3.7243,0,0,1-2.6178.7914H86.3317a.2783.2783,0,0,1-.2026-.0837m3.1082-1.2847a1.9654,1.9654,0,0,0,1.4388-.4463,2.1226,2.1226,0,0,0,.4654-1.47c.0147-.4757.0221-.7752.0221-.8941q0-.1895-.0221-.88a1.7029,1.7029,0,0,0-1.9644-1.9057H87.7v5.5953Z"/><path class="cls-6" d="M96.7962,61.3185a.2759.2759,0,0,1-.0837-.2026V53.3668a.3078.3078,0,0,1,.0778-.2144.272.272,0,0,1,.207-.0822h5.2386a.2958.2958,0,0,1,.2143.0822.2922.2922,0,0,1,.0822.2144v.7869a.2646.2646,0,0,1-.0822.207.2986.2986,0,0,1-.2143.0778H98.3187v2.1069h3.6529a.3015.3015,0,0,1,.2158.0778.2689.2689,0,0,1,.0837.2085v.737a.2689.2689,0,0,1-.0837.2085.2952.2952,0,0,1-.2158.0778H98.3187v2.1789h4.0126a.2949.2949,0,0,1,.2129.0822.292.292,0,0,1,.0851.2143v.7855a.272.272,0,0,1-.0851.2085.3042.3042,0,0,1-.2129.0778h-5.334a.2726.2726,0,0,1-.2011-.0837"/><path class="cls-6" d="M106.4794,61.3191a.2828.2828,0,0,1-.0822-.2026V53.3673a.2963.2963,0,0,1,.0778-.2143.2678.2678,0,0,1,.207-.0837h3.19a3.4533,3.4533,0,0,1,2.2493.6724,2.4009,2.4009,0,0,1,.8222,1.97,2.3741,2.3741,0,0,1-.8163,1.9585,3.4853,3.4853,0,0,1-2.2552.6593h-1.7736v2.7866a.2913.2913,0,0,1-.0778.2026.2743.2743,0,0,1-.207.0822h-1.132a.283.283,0,0,1-.2026-.0822m3.3328-4.3091a1.5491,1.5491,0,0,0,1.0615-.3275,1.2319,1.2319,0,0,0,.3671-.97,1.29,1.29,0,0,0-.3568-.9691,1.4688,1.4688,0,0,0-1.0718-.3523h-1.7383V57.01Z"/><path class="cls-6" d="M116.6686,61.3185a.2759.2759,0,0,1-.0837-.2026V53.3668a.3078.3078,0,0,1,.0778-.2144.272.272,0,0,1,.207-.0822h5.2385a.2959.2959,0,0,1,.2144.0822.2922.2922,0,0,1,.0822.2144v.7869a.2646.2646,0,0,1-.0822.207.2987.2987,0,0,1-.2144.0778h-3.9171v2.1069h3.6529a.3015.3015,0,0,1,.2158.0778.2689.2689,0,0,1,.0837.2085v.737a.2689.2689,0,0,1-.0837.2085.2952.2952,0,0,1-.2158.0778h-3.6529v2.1789h4.0126a.2949.2949,0,0,1,.2129.0822.292.292,0,0,1,.0851.2143v.7855a.272.272,0,0,1-.0851.2085.3042.3042,0,0,1-.2129.0778H116.87a.2726.2726,0,0,1-.2011-.0837"/><path class="cls-6" d="M126.3524,61.3185a.2759.2759,0,0,1-.0837-.2026V53.3668a.3078.3078,0,0,1,.0778-.2144.272.272,0,0,1,.207-.0822h.9176a.3638.3638,0,0,1,.2144.0528.6531.6531,0,0,1,.1292.138l3.43,5.3326V53.3668a.3083.3083,0,0,1,.0778-.2144.271.271,0,0,1,.2056-.0822h1.0013a.3017.3017,0,0,1,.2158.0822.2979.2979,0,0,1,.0822.2144v7.7374a.293.293,0,0,1-.0822.2143.2815.2815,0,0,1-.2041.0837h-.9279a.4156.4156,0,0,1-.345-.1908l-3.4165-5.2136v5.1181a.2754.2754,0,0,1-.0822.2085.3089.3089,0,0,1-.2158.0778h-1a.2726.2726,0,0,1-.2011-.0837"/><path class="cls-6" d="M137.0617,61.3178a.2727.2727,0,0,1-.0837-.2011V53.3675a.3029.3029,0,0,1,.0779-.2144.27.27,0,0,1,.207-.0837h2.9056q3.4993,0,3.5706,3.2374c.0147.461.0235.7708.0235.9294,0,.15-.0088.4566-.0235.9162a3.3636,3.3636,0,0,1-.8927,2.4577,3.7292,3.7292,0,0,1-2.6178.7914h-2.9657a.2752.2752,0,0,1-.2012-.0837m3.1068-1.2847a1.9634,1.9634,0,0,0,1.4388-.4463,2.1085,2.1085,0,0,0,.4654-1.47c.0162-.4757.022-.7752.022-.8941,0-.1263-.0058-.42-.022-.88a1.7015,1.7015,0,0,0-1.9644-1.9057h-1.4756v5.5953Z"/><path class="cls-6" d="M147.7244,61.3185a.2759.2759,0,0,1-.0837-.2026V53.3668a.3078.3078,0,0,1,.0778-.2144.272.272,0,0,1,.207-.0822h5.2386a.2958.2958,0,0,1,.2143.0822.2923.2923,0,0,1,.0823.2144v.7869a.2647.2647,0,0,1-.0823.207.2986.2986,0,0,1-.2143.0778h-3.9172v2.1069H152.9a.3014.3014,0,0,1,.2158.0778.2689.2689,0,0,1,.0837.2085v.737a.2689.2689,0,0,1-.0837.2085.295.295,0,0,1-.2158.0778h-3.6529v2.1789H153.26a.2865.2865,0,0,1,.2981.2965v.7855a.2721.2721,0,0,1-.0852.2085.3041.3041,0,0,1-.2129.0778h-5.334a.2726.2726,0,0,1-.2011-.0837"/><path class="cls-6" d="M157.4084,61.3185a.2814.2814,0,0,1-.0837-.2026V53.3668a.3078.3078,0,0,1,.0778-.2144.2732.2732,0,0,1,.2085-.0822h.9161a.3611.3611,0,0,1,.2144.0528.6194.6194,0,0,1,.1306.138L162.3,58.5936V53.3668a.3078.3078,0,0,1,.0778-.2144.272.272,0,0,1,.207-.0822h1a.2821.2821,0,0,1,.298.2966v7.7374a.2934.2934,0,0,1-.0822.2143.2783.2783,0,0,1-.2026.0837H162.67a.42.42,0,0,1-.3465-.1908l-3.4165-5.2136v5.1181a.2754.2754,0,0,1-.0822.2085.3041.3041,0,0,1-.2159.0778h-.9983a.2757.2757,0,0,1-.2026-.0837"/><path class="cls-6" d="M168.7524,60.6755a3.295,3.295,0,0,1-.9573-2.38c-.0088-.2143-.0117-.5638-.0117-1.0468,0-.4933.0029-.85.0117-1.0718a3.2827,3.2827,0,0,1,.969-2.3756,3.5638,3.5638,0,0,1,2.5283-.85,4.3531,4.3531,0,0,1,1.8455.3626,2.91,2.91,0,0,1,1.2142.9881,2.5909,2.5909,0,0,1,.4537,1.4109v.0235a.2037.2037,0,0,1-.0778.16.2614.2614,0,0,1-.1733.066h-1.13a.3269.3269,0,0,1-.2143-.06.4637.4637,0,0,1-.119-.2261,1.735,1.735,0,0,0-.6313-1.0527,2.0376,2.0376,0,0,0-1.1775-.3039q-1.7156,0-1.7853,1.916c-.0074.2144-.0132.5447-.0132.9881s.0058.7826.0132,1.0116q.07,1.9159,1.7853,1.9175a2.0455,2.0455,0,0,0,1.1834-.31,1.7,1.7,0,0,0,.6254-1.0483.3716.3716,0,0,1,.1131-.2261.3517.3517,0,0,1,.22-.0587h1.13a.2649.2649,0,0,1,.185.07.2042.2042,0,0,1,.0661.1792,2.5909,2.5909,0,0,1-.4537,1.4109,2.921,2.921,0,0,1-1.2142.9881,4.3745,4.3745,0,0,1-1.8455.3626,3.5618,3.5618,0,0,1-2.54-.8456"/><path class="cls-6" d="M178.617,61.3185a.2814.2814,0,0,1-.0837-.2026V53.3668a.3078.3078,0,0,1,.0778-.2144.2763.2763,0,0,1,.21-.0822h5.2356a.2821.2821,0,0,1,.2981.2966v.7869a.27.27,0,0,1-.0822.207.3025.3025,0,0,1-.2159.0778h-3.9157v2.1069h3.6544a.3054.3054,0,0,1,.2144.0778.2688.2688,0,0,1,.0836.2085v.737a.2688.2688,0,0,1-.0836.2085.2988.2988,0,0,1-.2144.0778h-3.6544v2.1789h4.0126a.2842.2842,0,0,1,.2966.2965v.7855a.2711.2711,0,0,1-.0837.2085.299.299,0,0,1-.2129.0778H178.821a.279.279,0,0,1-.204-.0837"/><path class="cls-6" d="M194.0187,61.2a2.7121,2.7121,0,0,1-1.1526-.8457,1.962,1.962,0,0,1-.4169-1.13.24.24,0,0,1,.07-.1777.2439.2439,0,0,1,.1792-.0719h1.0585a.3805.3805,0,0,1,.2217.0543.5523.5523,0,0,1,.1483.1718,1.2057,1.2057,0,0,0,.5462.6783,2.146,2.146,0,0,0,1.1672.2745,2.3438,2.3438,0,0,0,1.2729-.28.8808.8808,0,0,0,.4288-.78.7334.7334,0,0,0-.22-.5476,1.7944,1.7944,0,0,0-.6533-.3686q-.4361-.154-1.2921-.3817a4.9349,4.9349,0,0,1-2.054-.8868,1.96,1.96,0,0,1-.6489-1.5768,2.0927,2.0927,0,0,1,.3759-1.226,2.4947,2.4947,0,0,1,1.0835-.8442,4.0615,4.0615,0,0,1,1.6473-.31,3.8471,3.8471,0,0,1,1.6914.345,2.8324,2.8324,0,0,1,1.0894.8633,1.9124,1.9124,0,0,1,.3979,1.0292.2356.2356,0,0,1-.072.1777.24.24,0,0,1-.1776.0719h-1.1071a.3464.3464,0,0,1-.3465-.2261.9607.9607,0,0,0-.4756-.6372,1.8365,1.8365,0,0,0-1-.2554,1.9057,1.9057,0,0,0-1.0483.25.8185.8185,0,0,0-.3788.7267.8.8,0,0,0,.1894.5477,1.5866,1.5866,0,0,0,.602.38,9.9253,9.9253,0,0,0,1.1834.3685,8.2408,8.2408,0,0,1,1.6737.5374,2.1991,2.1991,0,0,1,.922.7488,2.063,2.063,0,0,1,.2966,1.154,2.157,2.157,0,0,1-.4214,1.3273,2.6364,2.6364,0,0,1-1.1907.8633,4.875,4.875,0,0,1-1.7677.298,4.6754,4.6754,0,0,1-1.822-.3215"/><path class="cls-6" d="M202.9942,61.3185a.2818.2818,0,0,1-.0837-.2026V53.3668a.3083.3083,0,0,1,.0778-.2144.2766.2766,0,0,1,.21-.0822h5.2356a.2821.2821,0,0,1,.298.2966v.7869a.27.27,0,0,1-.0822.207.3021.3021,0,0,1-.2158.0778h-3.9157v2.1069h3.6544a.3052.3052,0,0,1,.2143.0778.2689.2689,0,0,1,.0837.2085v.737a.2689.2689,0,0,1-.0837.2085.2986.2986,0,0,1-.2143.0778h-3.6544v2.1789h4.0126a.2842.2842,0,0,1,.2966.2965v.7855a.2711.2711,0,0,1-.0837.2085.2992.2992,0,0,1-.2129.0778h-5.3325a.2794.2794,0,0,1-.2041-.0837"/><path class="cls-6" d="M212.6792,61.3191a.2782.2782,0,0,1-.0837-.2026V53.3673a.3028.3028,0,0,1,.0778-.2143.2711.2711,0,0,1,.2085-.0837h3.0818a3.49,3.49,0,0,1,2.28.6783,2.3564,2.3564,0,0,1,.8281,1.9292,2.4485,2.4485,0,0,1-.4229,1.4579,2.3449,2.3449,0,0,1-1.1731.85l1.7369,3.0363a.2841.2841,0,0,1,.0382.1306.2307.2307,0,0,1-.0778.1777.245.245,0,0,1-.1733.0719h-1.0821a.4631.4631,0,0,1-.2936-.0822.8012.8012,0,0,1-.1835-.2393l-1.5358-2.82H214.25v2.8571a.29.29,0,0,1-.0764.2026.2751.2751,0,0,1-.2085.0822h-1.0835a.28.28,0,0,1-.2026-.0822m3.2506-4.4046a1.5724,1.5724,0,0,0,1.0747-.3215,1.1712,1.1712,0,0,0,.3641-.9294,1.2083,1.2083,0,0,0-.3641-.94,1.5372,1.5372,0,0,0-1.0747-.3333h-1.68v2.5238Z"/><path class="cls-6" d="M224.8623,61.0682l-2.5458-7.642-.025-.1057a.25.25,0,0,1,.07-.1791.2443.2443,0,0,1,.1806-.072h1.0468a.3622.3622,0,0,1,.2437.0779.418.418,0,0,1,.1248.1835l2.0115,6.1312,2.0114-6.1312a.37.37,0,0,1,.3685-.2614h1.0483a.25.25,0,0,1,.1732.072.2371.2371,0,0,1,.0764.1791l-.025.1057-2.5458,7.642a.4388.4388,0,0,1-.4537.3333H225.316a.4377.4377,0,0,1-.4537-.3333"/><path class="cls-6" d="M233.3532,61.3185a.2818.2818,0,0,1-.0836-.2026V53.355a.273.273,0,0,1,.0836-.207.2826.2826,0,0,1,.2026-.0778h1.1188a.2678.2678,0,0,1,.2863.2848v7.7609a.2889.2889,0,0,1-.0778.2026.2709.2709,0,0,1-.2085.0837h-1.1188a.2761.2761,0,0,1-.2026-.0837"/><path class="cls-6" d="M239.8355,60.6755a3.289,3.289,0,0,1-.9573-2.38q-.0132-.3214-.0132-1.0468,0-.74.0132-1.0718a3.2718,3.2718,0,0,1,.9705-2.3756,3.554,3.554,0,0,1,2.5282-.85,4.3512,4.3512,0,0,1,1.8441.3626,2.8916,2.8916,0,0,1,1.2142.9881,2.5773,2.5773,0,0,1,.4522,1.4109v.0235a.2037.2037,0,0,1-.0778.16.2576.2576,0,0,1-.1718.066h-1.129a.3287.3287,0,0,1-.2158-.06.4517.4517,0,0,1-.119-.2261,1.7355,1.7355,0,0,0-.6313-1.0527,2.0376,2.0376,0,0,0-1.1775-.3039q-1.7155,0-1.7853,1.916c-.0088.2144-.0118.5447-.0118.9881s.003.7826.0118,1.0116q.07,1.9159,1.7853,1.9175a2.0422,2.0422,0,0,0,1.1834-.31,1.7064,1.7064,0,0,0,.6254-1.0483.3882.3882,0,0,1,.1131-.2261.3564.3564,0,0,1,.2217-.0587h1.129a.2615.2615,0,0,1,.1836.07.2005.2005,0,0,1,.066.1792,2.5773,2.5773,0,0,1-.4522,1.4109,2.9028,2.9028,0,0,1-1.2142.9881,4.3727,4.3727,0,0,1-1.8441.3626,3.5656,3.5656,0,0,1-2.5414-.8456"/><path class="cls-6" d="M249.7014,61.3185a.2759.2759,0,0,1-.0837-.2026V53.3668a.3078.3078,0,0,1,.0778-.2144.272.272,0,0,1,.207-.0822h5.2385a.2959.2959,0,0,1,.2144.0822.2922.2922,0,0,1,.0822.2144v.7869a.2646.2646,0,0,1-.0822.207.2987.2987,0,0,1-.2144.0778h-3.9171v2.1069h3.6529a.3015.3015,0,0,1,.2158.0778.2689.2689,0,0,1,.0837.2085v.737a.2689.2689,0,0,1-.0837.2085.2952.2952,0,0,1-.2158.0778h-3.6529v2.1789h4.0126a.2863.2863,0,0,1,.298.2965v.7855a.2724.2724,0,0,1-.0851.2085.3042.3042,0,0,1-.2129.0778h-5.334a.2726.2726,0,0,1-.2011-.0837"/><path class="cls-6" d="M260.4921,61.2a2.7121,2.7121,0,0,1-1.1526-.8457,1.962,1.962,0,0,1-.4169-1.13.24.24,0,0,1,.07-.1777.2439.2439,0,0,1,.1792-.0719h1.0585a.3805.3805,0,0,1,.2217.0543.5536.5536,0,0,1,.1483.1718,1.2057,1.2057,0,0,0,.5462.6783,2.1457,2.1457,0,0,0,1.1672.2745,2.3438,2.3438,0,0,0,1.2729-.28.8807.8807,0,0,0,.4287-.78.7333.7333,0,0,0-.22-.5476,1.7944,1.7944,0,0,0-.6533-.3686q-.4361-.154-1.2921-.3817a4.9349,4.9349,0,0,1-2.054-.8868,1.96,1.96,0,0,1-.6489-1.5768,2.0927,2.0927,0,0,1,.3759-1.226,2.4941,2.4941,0,0,1,1.0835-.8442,4.0615,4.0615,0,0,1,1.6473-.31,3.8471,3.8471,0,0,1,1.6914.345,2.8324,2.8324,0,0,1,1.0894.8633,1.9124,1.9124,0,0,1,.3979,1.0292.2356.2356,0,0,1-.072.1777.24.24,0,0,1-.1776.0719h-1.1071a.3464.3464,0,0,1-.3465-.2261.9605.9605,0,0,0-.4757-.6372,1.8359,1.8359,0,0,0-1-.2554,1.9057,1.9057,0,0,0-1.0483.25.8185.8185,0,0,0-.3788.7267.7991.7991,0,0,0,.1894.5477,1.5866,1.5866,0,0,0,.602.38,9.9226,9.9226,0,0,0,1.1833.3685,8.24,8.24,0,0,1,1.6738.5374,2.1991,2.1991,0,0,1,.922.7488,2.063,2.063,0,0,1,.2966,1.154,2.1576,2.1576,0,0,1-.4214,1.3273,2.6364,2.6364,0,0,1-1.1907.8633,4.875,4.875,0,0,1-1.7677.298,4.6754,4.6754,0,0,1-1.822-.3215"/></g></g></svg>